{
  "accessors": [
    {
      "bufferView": 1,
      "componentType": 5126,
      "count": 910,
      "max": [
        57.380001068115234,
        444.51385498046875,
        -195.37518310546875
      ],
      "min": [
        -57.380001068115234,
        410.87387084960938,
        -200.37518310546875
      ],
      "type": "VEC3"
    },
    {
      "bufferView": 1,
      "byteOffset": 10920,
      "componentType": 5126,
      "count": 910,
      "max": [
        1,
        1,
        -0
      ],
      "min": [
        -1,
        -1,
        -0
      ],
      "type": "VEC3"
    },
    {
      "bufferView": 2,
      "componentType": 5126,
      "count": 910,
      "max": [
        1,
        1,
        0,
        -1
      ],
      "min": [
        -1,
        -1,
        0,
        -1
      ],
      "type": "VEC4"
    },
    {
      "bufferView": 0,
      "componentType": 5125,
      "count": 2124,
      "max": [
        909
      ],
      "min": [
        0
      ],
      "type": "SCALAR"
    },
    {
      "bufferView": 1,
      "byteOffset": 21840,
      "componentType": 5126,
      "count": 354,
      "max": [
        57.380001068115234,
        33.279998779296875,
        -0
      ],
      "min": [
        -57.380001068115234,
        -0.36000001430511475,
        -0
      ],
      "type": "VEC3"
    },
    {
      "bufferView": 1,
      "byteOffset": 26088,
      "componentType": 5126,
      "count": 354,
      "max": [
        0,
        0,
        1
      ],
      "min": [
        0,
        0,
        1
      ],
      "type": "VEC3"
    },
    {
      "bufferView": 2,
      "byteOffset": 14560,
      "componentType": 5126,
      "count": 354,
      "max": [
        1,
        0.00010267262405250221,
        0,
        1
      ],
      "min": [
        1,
        -0.00018863669538404793,
        0,
        1
      ],
      "type": "VEC4"
    },
    {
      "bufferView": 0,
      "byteOffset": 8496,
      "componentType": 5125,
      "count": 996,
      "max": [
        353
      ],
      "min": [
        0
      ],
      "type": "SCALAR"
    },
    {
      "bufferView": 1,
      "byteOffset": 30336,
      "componentType": 5126,
      "count": 354,
      "max": [
        57.380001068115234,
        33.279998779296875,
        -5
      ],
      "min": [
        -57.380001068115234,
        -0.36000001430511475,
        -5
      ],
      "type": "VEC3"
    },
    {
      "bufferView": 1,
      "byteOffset": 34584,
      "componentType": 5126,
      "count": 354,
      "max": [
        0,
        0,
        -1
      ],
      "min": [
        0,
        0,
        -1
      ],
      "type": "VEC3"
    },
    {
      "bufferView": 2,
      "byteOffset": 20224,
      "componentType": 5126,
      "count": 354,
      "max": [
        1,
        0.00014492553600575775,
        0,
        -1
      ],
      "min": [
        1,
        -0.00017743188072927296,
        0,
        -1
      ],
      "type": "VEC4"
    },
    {
      "bufferView": 0,
      "byteOffset": 12480,
      "componentType": 5125,
      "count": 1002,
      "max": [
        353
      ],
      "min": [
        0
      ],
      "type": "SCALAR"
    },
    {
      "bufferView": 1,
      "byteOffset": 38832,
      "componentType": 5126,
      "count": 24436,
      "max": [
        101.89295196533203,
        531.864990234375,
        -99.877891540527344
      ],
      "min": [
        -101.89295196533203,
        328.293212890625,
        -303.44137573242188
      ],
      "type": "VEC3"
    },
    {
      "bufferView": 1,
      "byteOffset": 332064,
      "componentType": 5126,
      "count": 24436,
      "max": [
        0.95105654001235962,
        1,
        0.99999755620956421
      ],
      "min": [
        -0.95105654001235962,
        -1,
        -0.99984484910964966
      ],
      "type": "VEC3"
    },
    {
      "bufferView": 2,
      "byteOffset": 25888,
      "componentType": 5126,
      "count": 24436,
      "max": [
        1,
        0.96513861417770386,
        0.99850189685821533,
        1
      ],
      "min": [
        -1,
        -0.99992579221725464,
        -0.96768003702163696,
        1
      ],
      "type": "VEC4"
    },
    {
      "bufferView": 0,
      "byteOffset": 16488,
      "componentType": 5125,
      "count": 64464,
      "max": [
        24435
      ],
      "min": [
        0
      ],
      "type": "SCALAR"
    }
  ],
  "asset": {
    "extras": {
      "author": "tom.b.ebay (https://sketchfab.com/tom.b.ebay)",
      "license": "CC-BY-4.0 (http://creativecommons.org/licenses/by/4.0/)",
      "source": "https://sketchfab.com/models/59508a183fab4e5abb7e2f81bbb6e171",
      "title": "influencer_AR_c4d"
    },
    "generator": "Sketchfab-3.30.3",
    "version": "2.0"
  },
  "bufferViews": [
    {
      "buffer": 0,
      "byteLength": 274344,
      "byteOffset": 0,
      "name": "floatBufferViews",
      "target": 34963
    },
    {
      "buffer": 0,
      "byteLength": 625296,
      "byteOffset": 274344,
      "byteStride": 12,
      "name": "floatBufferViews",
      "target": 34962
    },
    {
      "buffer": 0,
      "byteLength": 416864,
      "byteOffset": 899640,
      "byteStride": 16,
      "name": "floatBufferViews",
      "target": 34962
    }
  ],
  "buffers": [
    {
      "byteLength": 1316504,
      "uri": "scene.bin"
    }
  ],
  "materials": [
    {
      "doubleSided": true,
      "emissiveFactor": [
        0,
        0,
        0
      ],
      "name": "material",
      "pbrMetallicRoughness": {
        "baseColorFactor": [
          1,
          1,
          1,
          1
        ],
        "metallicFactor": 0,
        "roughnessFactor": 0.59999999999999998
      }
    },
    {
      "doubleSided": true,
      "emissiveFactor": [
        0,
        0,
        0
      ],
      "name": "Mat_0",
      "pbrMetallicRoughness": {
        "baseColorFactor": [
          0,
          0,
          0,
          1
        ],
        "metallicFactor": 0,
        "roughnessFactor": 0.59999999999999998
      }
    }
  ],
  "meshes": [
    {
      "name": "Extrude_Mat_0",
      "primitives": [
        {
          "attributes": {
            "NORMAL": 1,
            "POSITION": 0,
            "TANGENT": 2
          },
          "indices": 3,
          "material": 0,
          "mode": 4
        }
      ]
    },
    {
      "name": "Cap_1_Mat_0",
      "primitives": [
        {
          "attributes": {
            "NORMAL": 5,
            "POSITION": 4,
            "TANGENT": 6
          },
          "indices": 7,
          "material": 0,
          "mode": 4
        }
      ]
    },
    {
      "name": "Cap_2_Mat_0",
      "primitives": [
        {
          "attributes": {
            "NORMAL": 9,
            "POSITION": 8,
            "TANGENT": 10
          },
          "indices": 11,
          "material": 0,
          "mode": 4
        }
      ]
    },
    {
      "name": "Sphere_Mat_0",
      "primitives": [
        {
          "attributes": {
            "NORMAL": 13,
            "POSITION": 12,
            "TANGENT": 14
          },
          "indices": 15,
          "material": 1,
          "mode": 4
        }
      ]
    }
  ],
  "nodes": [
    {
      "children": [
        1
      ],
      "name": "RootNode (gltf orientation matrix)",
      "rotation": [
        -0.70710678118654746,
        -0,
        -0,
        0.70710678118654757
      ]
    },
    {
      "children": [
        2
      ],
      "name": "RootNode (model correction matrix)"
    },
    {
      "children": [
        3
      ],
      "matrix": [
        1,
        0,
        0,
        0,
        0,
        0,
        1,
        0,
        0,
        -1,
        0,
        0,
        0,
        0,
        0,
        1
      ],
      "name": "influencer_AR.c4d.fbx"
    },
    {
      "children": [
        4,
        10,
        13
      ],
      "name": "RootNode"
    },
    {
      "children": [
        5,
        6,
        8
      ],
      "matrix": [
        1,
        0,
        0,
        0,
        0,
        1,
        0,
        0,
        0,
        0,
        1,
        0,
        0,
        -175.10249328613281,
        197.45291137695312,
        1
      ],
      "name": "Extrude"
    },
    {
      "mesh": 0,
      "name": "Extrude_Mat_0"
    },
    {
      "children": [
        7
      ],
      "matrix": [
        1,
        0,
        0,
        0,
        0,
        1,
        0,
        0,
        0,
        0,
        1,
        0,
        0,
        411.23385620117188,
        -195.37518310546875,
        1
      ],
      "name": "Cap_1"
    },
    {
      "mesh": 1,
      "name": "Cap_1_Mat_0"
    },
    {
      "children": [
        9
      ],
      "matrix": [
        1,
        0,
        0,
        0,
        0,
        1,
        0,
        0,
        0,
        0,
        1,
        0,
        0,
        411.23385620117188,
        -195.37518310546875,
        1
      ],
      "name": "Cap_2"
    },
    {
      "mesh": 2,
      "name": "Cap_2_Mat_0"
    },
    {
      "children": [
        11
      ],
      "matrix": [
        1,
        0,
        0,
        0,
        0,
        1,
        0,
        0,
        0,
        0,
        1,
        0,
        0,
        -175.10249328613281,
        197.45291137695312,
        1
      ],
      "name": "Atom_Array"
    },
    {
      "children": [
        12
      ],
      "name": "Sphere"
    },
    {
      "mesh": 3,
      "name": "Sphere_Mat_0"
    },
    {
      "children": [
        14
      ],
      "matrix": [
        1,
        0,
        0,
        0,
        0,
        2.2204460492503131e-16,
        1,
        0,
        0,
        -1,
        2.2204460492503131e-16,
        0,
        0,
        638.07794189453125,
        726.44091796875,
        1
      ],
      "name": "Light"
    },
    {
      "children": [
        15
      ],
      "matrix": [
        1,
        0,
        0,
        0,
        0,
        2.2204460492503131e-16,
        1,
        0,
        0,
        -1,
        2.2204460492503131e-16,
        0,
        0,
        0,
        0,
        1
      ],
      "name": ""
    },
    {
      "name": ""
    }
  ],
  "scene": 0,
  "scenes": [
    {
      "name": "OSG_Scene",
      "nodes": [
        0
      ]
    }
  ]
}

