{
  "accessors": [
    {
      "bufferView": 1,
      "componentType": 5126,
      "count": 2732,
      "max": [
        360.38839721679688,
        74.038414001464844,
        99.874443054199219
      ],
      "min": [
        -523.70269775390625,
        -17.656648635864258,
        49.874439239501953
      ],
      "type": "VEC3"
    },
    {
      "bufferView": 1,
      "byteOffset": 32784,
      "componentType": 5126,
      "count": 2732,
      "max": [
        1,
        1,
        -0
      ],
      "min": [
        -1,
        -1,
        -0
      ],
      "type": "VEC3"
    },
    {
      "bufferView": 2,
      "componentType": 5126,
      "count": 2732,
      "max": [
        1,
        1,
        0,
        -1
      ],
      "min": [
        -1,
        -1,
        0,
        -1
      ],
      "type": "VEC4"
    },
    {
      "bufferView": 0,
      "componentType": 5125,
      "count": 6480,
      "max": [
        2731
      ],
      "min": [
        0
      ],
      "type": "SCALAR"
    },
    {
      "bufferView": 1,
      "byteOffset": 65568,
      "componentType": 5126,
      "count": 2160,
      "max": [
        68.307380676269531,
        20.5,
        -2.1316282072803006e-14
      ],
      "min": [
        -327,
        -20.5,
        -22.356710433959961
      ],
      "type": "VEC3"
    },
    {
      "bufferView": 1,
      "byteOffset": 91488,
      "componentType": 5126,
      "count": 2160,
      "max": [
        0,
        0,
        1
      ],
      "min": [
        0,
        0,
        -1
      ],
      "type": "VEC3"
    },
    {
      "bufferView": 2,
      "byteOffset": 43712,
      "componentType": 5126,
      "count": 2160,
      "max": [
        1,
        0.02666795626282692,
        0,
        1
      ],
      "min": [
        0.99964433908462524,
        -0.0065627312287688255,
        0,
        -1
      ],
      "type": "VEC4"
    },
    {
      "bufferView": 0,
      "byteOffset": 25920,
      "componentType": 5125,
      "count": 6372,
      "max": [
        2159
      ],
      "min": [
        0
      ],
      "type": "SCALAR"
    },
    {
      "bufferView": 1,
      "byteOffset": 117408,
      "componentType": 5126,
      "count": 24,
      "max": [
        75,
        75,
        75
      ],
      "min": [
        -75,
        -75,
        -75
      ],
      "type": "VEC3"
    },
    {
      "bufferView": 1,
      "byteOffset": 117696,
      "componentType": 5126,
      "count": 24,
      "max": [
        1,
        1,
        1
      ],
      "min": [
        -1,
        -1,
        -1
      ],
      "type": "VEC3"
    },
    {
      "bufferView": 2,
      "byteOffset": 78272,
      "componentType": 5126,
      "count": 24,
      "max": [
        1,
        0,
        1,
        1
      ],
      "min": [
        -1,
        0,
        -1,
        1
      ],
      "type": "VEC4"
    },
    {
      "bufferView": 0,
      "byteOffset": 51408,
      "componentType": 5125,
      "count": 36,
      "max": [
        23
      ],
      "min": [
        0
      ],
      "type": "SCALAR"
    },
    {
      "bufferView": 1,
      "byteOffset": 117984,
      "componentType": 5126,
      "count": 24,
      "max": [
        125,
        125,
        125
      ],
      "min": [
        -125,
        -125,
        -125
      ],
      "type": "VEC3"
    },
    {
      "bufferView": 1,
      "byteOffset": 118272,
      "componentType": 5126,
      "count": 24,
      "max": [
        1,
        1,
        1
      ],
      "min": [
        -1,
        -1,
        -1
      ],
      "type": "VEC3"
    },
    {
      "bufferView": 2,
      "byteOffset": 78656,
      "componentType": 5126,
      "count": 24,
      "max": [
        1,
        0,
        1,
        1
      ],
      "min": [
        -1,
        0,
        -1,
        1
      ],
      "type": "VEC4"
    },
    {
      "bufferView": 0,
      "byteOffset": 51552,
      "componentType": 5125,
      "count": 36,
      "max": [
        23
      ],
      "min": [
        0
      ],
      "type": "SCALAR"
    },
    {
      "bufferView": 1,
      "byteOffset": 118560,
      "componentType": 5126,
      "count": 24,
      "max": [
        50,
        50,
        50
      ],
      "min": [
        -50,
        -50,
        -50
      ],
      "type": "VEC3"
    },
    {
      "bufferView": 1,
      "byteOffset": 118848,
      "componentType": 5126,
      "count": 24,
      "max": [
        1,
        1,
        1
      ],
      "min": [
        -1,
        -1,
        -1
      ],
      "type": "VEC3"
    },
    {
      "bufferView": 2,
      "byteOffset": 79040,
      "componentType": 5126,
      "count": 24,
      "max": [
        1,
        0,
        1,
        1
      ],
      "min": [
        -1,
        0,
        -1,
        1
      ],
      "type": "VEC4"
    },
    {
      "bufferView": 0,
      "byteOffset": 51696,
      "componentType": 5125,
      "count": 36,
      "max": [
        23
      ],
      "min": [
        0
      ],
      "type": "SCALAR"
    },
    {
      "bufferView": 1,
      "byteOffset": 119136,
      "componentType": 5126,
      "count": 24,
      "max": [
        108,
        108,
        108
      ],
      "min": [
        -108,
        -108,
        -108
      ],
      "type": "VEC3"
    },
    {
      "bufferView": 1,
      "byteOffset": 119424,
      "componentType": 5126,
      "count": 24,
      "max": [
        1,
        1,
        1
      ],
      "min": [
        -1,
        -1,
        -1
      ],
      "type": "VEC3"
    },
    {
      "bufferView": 2,
      "byteOffset": 79424,
      "componentType": 5126,
      "count": 24,
      "max": [
        1,
        0,
        1,
        1
      ],
      "min": [
        -1,
        0,
        -1,
        1
      ],
      "type": "VEC4"
    },
    {
      "bufferView": 0,
      "byteOffset": 51840,
      "componentType": 5125,
      "count": 36,
      "max": [
        23
      ],
      "min": [
        0
      ],
      "type": "SCALAR"
    },
    {
      "bufferView": 3,
      "componentType": 5126,
      "count": 79,
      "max": [
        3.3333332538604736
      ],
      "min": [
        0
      ],
      "type": "SCALAR"
    },
    {
      "bufferView": 4,
      "componentType": 5126,
      "count": 79,
      "max": [
        1.2000000476837158,
        1.2000000476837158,
        1.2000000476837158
      ],
      "min": [
        1,
        1,
        1
      ],
      "type": "VEC3"
    },
    {
      "bufferView": 3,
      "byteOffset": 316,
      "componentType": 5126,
      "count": 79,
      "max": [
        3.3333332538604736
      ],
      "min": [
        0
      ],
      "type": "SCALAR"
    },
    {
      "bufferView": 5,
      "componentType": 5126,
      "count": 79,
      "max": [
        -2.3129645794903686e-17,
        -0,
        0,
        1
      ],
      "min": [
        -6.9472603394948347e-17,
        -0,
        0,
        1
      ],
      "type": "VEC4"
    },
    {
      "bufferView": 3,
      "byteOffset": 632,
      "componentType": 5126,
      "count": 79,
      "max": [
        3.3333332538604736
      ],
      "min": [
        0
      ],
      "type": "SCALAR"
    },
    {
      "bufferView": 4,
      "byteOffset": 948,
      "componentType": 5126,
      "count": 79,
      "max": [
        1.2000000476837158,
        1.2000000476837158,
        1.2000000476837158
      ],
      "min": [
        1,
        1,
        1
      ],
      "type": "VEC3"
    },
    {
      "bufferView": 3,
      "byteOffset": 948,
      "componentType": 5126,
      "count": 79,
      "max": [
        3.3333332538604736
      ],
      "min": [
        0
      ],
      "type": "SCALAR"
    },
    {
      "bufferView": 5,
      "byteOffset": 1264,
      "componentType": 5126,
      "count": 79,
      "max": [
        0,
        -0,
        0,
        1
      ],
      "min": [
        -6.9472603394948347e-17,
        -0,
        0,
        1
      ],
      "type": "VEC4"
    },
    {
      "bufferView": 3,
      "byteOffset": 1264,
      "componentType": 5126,
      "count": 80,
      "max": [
        3.3333332538604736
      ],
      "min": [
        0
      ],
      "type": "SCALAR"
    },
    {
      "bufferView": 4,
      "byteOffset": 1896,
      "componentType": 5126,
      "count": 80,
      "max": [
        1.2000000476837158,
        1.2000000476837158,
        1.2000000476837158
      ],
      "min": [
        1,
        1,
        1
      ],
      "type": "VEC3"
    },
    {
      "bufferView": 3,
      "byteOffset": 1584,
      "componentType": 5126,
      "count": 80,
      "max": [
        3.3333332538604736
      ],
      "min": [
        0
      ],
      "type": "SCALAR"
    },
    {
      "bufferView": 5,
      "byteOffset": 2528,
      "componentType": 5126,
      "count": 80,
      "max": [
        0,
        -0,
        0,
        1
      ],
      "min": [
        -6.9472603394948347e-17,
        -0,
        0,
        1
      ],
      "type": "VEC4"
    },
    {
      "bufferView": 3,
      "byteOffset": 1904,
      "componentType": 5126,
      "count": 79,
      "max": [
        3.3333332538604736
      ],
      "min": [
        0
      ],
      "type": "SCALAR"
    },
    {
      "bufferView": 4,
      "byteOffset": 2856,
      "componentType": 5126,
      "count": 79,
      "max": [
        1.2029999494552612,
        1.2029999494552612,
        1.2029999494552612
      ],
      "min": [
        1,
        1,
        1
      ],
      "type": "VEC3"
    },
    {
      "bufferView": 3,
      "byteOffset": 2220,
      "componentType": 5126,
      "count": 79,
      "max": [
        3.3333332538604736
      ],
      "min": [
        0
      ],
      "type": "SCALAR"
    },
    {
      "bufferView": 5,
      "byteOffset": 3808,
      "componentType": 5126,
      "count": 79,
      "max": [
        0,
        -0,
        0,
        1
      ],
      "min": [
        -5.5429849303211215e-17,
        -0,
        0,
        1
      ],
      "type": "VEC4"
    }
  ],
  "animations": [
    {
      "channels": [
        {
          "sampler": 0,
          "target": {
            "node": 13,
            "path": "scale"
          }
        },
        {
          "sampler": 1,
          "target": {
            "node": 13,
            "path": "rotation"
          }
        },
        {
          "sampler": 2,
          "target": {
            "node": 15,
            "path": "scale"
          }
        },
        {
          "sampler": 3,
          "target": {
            "node": 15,
            "path": "rotation"
          }
        },
        {
          "sampler": 4,
          "target": {
            "node": 17,
            "path": "scale"
          }
        },
        {
          "sampler": 5,
          "target": {
            "node": 17,
            "path": "rotation"
          }
        },
        {
          "sampler": 6,
          "target": {
            "node": 19,
            "path": "scale"
          }
        },
        {
          "sampler": 7,
          "target": {
            "node": 19,
            "path": "rotation"
          }
        }
      ],
      "name": "Main",
      "samplers": [
        {
          "input": 24,
          "interpolation": "LINEAR",
          "output": 25
        },
        {
          "input": 26,
          "interpolation": "LINEAR",
          "output": 27
        },
        {
          "input": 28,
          "interpolation": "LINEAR",
          "output": 29
        },
        {
          "input": 30,
          "interpolation": "LINEAR",
          "output": 31
        },
        {
          "input": 32,
          "interpolation": "LINEAR",
          "output": 33
        },
        {
          "input": 34,
          "interpolation": "LINEAR",
          "output": 35
        },
        {
          "input": 36,
          "interpolation": "LINEAR",
          "output": 37
        },
        {
          "input": 38,
          "interpolation": "LINEAR",
          "output": 39
        }
      ]
    }
  ],
  "asset": {
    "extras": {
      "author": "tom.b.ebay (https://sketchfab.com/tom.b.ebay)",
      "license": "CC-BY-4.0 (http://creativecommons.org/licenses/by/4.0/)",
      "source": "https://sketchfab.com/models/5b599fea38e94ea38b4fa45cf4f39d39",
      "title": "MAG_AR_c4d"
    },
    "generator": "Sketchfab-3.30.3",
    "version": "2.0"
  },
  "bufferViews": [
    {
      "buffer": 0,
      "byteLength": 51984,
      "byteOffset": 0,
      "name": "floatBufferViews",
      "target": 34963
    },
    {
      "buffer": 0,
      "byteLength": 119712,
      "byteOffset": 51984,
      "byteStride": 12,
      "name": "floatBufferViews",
      "target": 34962
    },
    {
      "buffer": 0,
      "byteLength": 79808,
      "byteOffset": 171696,
      "byteStride": 16,
      "name": "floatBufferViews",
      "target": 34962
    },
    {
      "buffer": 0,
      "byteLength": 2536,
      "byteOffset": 251504,
      "name": "floatBufferViews"
    },
    {
      "buffer": 0,
      "byteLength": 3804,
      "byteOffset": 254040,
      "byteStride": 12,
      "name": "floatBufferViews"
    },
    {
      "buffer": 0,
      "byteLength": 5072,
      "byteOffset": 257844,
      "byteStride": 16,
      "name": "floatBufferViews"
    }
  ],
  "buffers": [
    {
      "byteLength": 262916,
      "uri": "scene.bin"
    }
  ],
  "materials": [
    {
      "doubleSided": true,
      "emissiveFactor": [
        0,
        0,
        0
      ],
      "name": "material",
      "pbrMetallicRoughness": {
        "baseColorFactor": [
          0,
          0,
          0,
          1
        ],
        "metallicFactor": 0,
        "roughnessFactor": 0.95243171540000005
      }
    }
  ],
  "meshes": [
    {
      "name": "Extrude_Mat_0",
      "primitives": [
        {
          "attributes": {
            "NORMAL": 1,
            "POSITION": 0,
            "TANGENT": 2
          },
          "indices": 3,
          "material": 0,
          "mode": 4
        }
      ]
    },
    {
      "name": "Cap_1_1_Mat_0",
      "primitives": [
        {
          "attributes": {
            "NORMAL": 5,
            "POSITION": 4,
            "TANGENT": 6
          },
          "indices": 7,
          "material": 0,
          "mode": 4
        }
      ]
    },
    {
      "name": "Cube_2_Mat_0",
      "primitives": [
        {
          "attributes": {
            "NORMAL": 9,
            "POSITION": 8,
            "TANGENT": 10
          },
          "indices": 11,
          "material": 0,
          "mode": 4
        }
      ]
    },
    {
      "name": "Cube_Mat_0",
      "primitives": [
        {
          "attributes": {
            "NORMAL": 13,
            "POSITION": 12,
            "TANGENT": 14
          },
          "indices": 15,
          "material": 0,
          "mode": 4
        }
      ]
    },
    {
      "name": "Cube_3_Mat_0",
      "primitives": [
        {
          "attributes": {
            "NORMAL": 17,
            "POSITION": 16,
            "TANGENT": 18
          },
          "indices": 19,
          "material": 0,
          "mode": 4
        }
      ]
    },
    {
      "name": "Cube_1_Mat_0",
      "primitives": [
        {
          "attributes": {
            "NORMAL": 21,
            "POSITION": 20,
            "TANGENT": 22
          },
          "indices": 23,
          "material": 0,
          "mode": 4
        }
      ]
    }
  ],
  "nodes": [
    {
      "children": [
        1
      ],
      "name": "RootNode (gltf orientation matrix)",
      "rotation": [
        -0.70710678118654746,
        -0,
        -0,
        0.70710678118654757
      ]
    },
    {
      "children": [
        2
      ],
      "name": "RootNode (model correction matrix)"
    },
    {
      "children": [
        3
      ],
      "matrix": [
        1,
        0,
        0,
        0,
        0,
        0,
        1,
        0,
        0,
        -1,
        0,
        0,
        0,
        0,
        0,
        1
      ],
      "name": "MAG_AR.c4d.fbx"
    },
    {
      "children": [
        4
      ],
      "name": ""
    },
    {
      "children": [
        5,
        8,
        12
      ],
      "name": "RootNode"
    },
    {
      "children": [
        6
      ],
      "name": "Light",
      "rotation": [
        0.7071068286895752,
        0,
        0,
        0.7071068286895752
      ],
      "translation": [
        0,
        638.07794189453125,
        726.44091796875
      ]
    },
    {
      "children": [
        7
      ],
      "matrix": [
        1,
        0,
        0,
        0,
        0,
        2.2204460492503131e-16,
        1,
        0,
        0,
        -1,
        2.2204460492503131e-16,
        0,
        0,
        0,
        0,
        1
      ],
      "name": ""
    },
    {
      "name": ""
    },
    {
      "children": [
        9,
        10
      ],
      "name": "Extrude",
      "rotation": [
        0.14263035356998444,
        0,
        0,
        0.98977601528167725
      ],
      "scale": [
        0.47090837359428406,
        0.47090837359428406,
        0.47090837359428406
      ],
      "translation": [
        7.6990079879760742,
        74.632232666015625,
        -67.6260986328125
      ]
    },
    {
      "mesh": 0,
      "name": "Extrude_Mat_0"
    },
    {
      "children": [
        11
      ],
      "name": "Cap_1_1",
      "rotation": [
        -4.9641868033830668e-17,
        -0,
        0,
        1
      ],
      "scale": [
        2.2364649772644043,
        2.2364649772644043,
        2.2364649772644043
      ],
      "translation": [
        207.621337890625,
        28.190883636474609,
        99.874443054199219
      ]
    },
    {
      "mesh": 1,
      "name": "Cap_1_1_Mat_0"
    },
    {
      "children": [
        13,
        15,
        17,
        19
      ],
      "name": "Null",
      "rotation": [
        0.14263035356998444,
        0,
        0,
        0.98977601528167725
      ],
      "scale": [
        0.47090837359428406,
        0.47090837359428406,
        0.47090837359428406
      ],
      "translation": [
        -37.533763885498047,
        203.83627319335938,
        4.4773030281066895
      ]
    },
    {
      "children": [
        14
      ],
      "name": "Cube_2",
      "rotation": [
        -2.7755575615628914e-17,
        -0,
        0,
        1
      ],
      "translation": [
        355.68438720703125,
        0,
        0
      ]
    },
    {
      "mesh": 2,
      "name": "Cube_2_Mat_0"
    },
    {
      "children": [
        16
      ],
      "name": "Cube",
      "rotation": [
        -2.7755575615628914e-17,
        -0,
        0,
        1
      ],
      "translation": [
        96.054298400878906,
        0,
        0
      ]
    },
    {
      "mesh": 3,
      "name": "Cube_Mat_0"
    },
    {
      "children": [
        18
      ],
      "name": "Cube_3",
      "rotation": [
        -2.7755575615628914e-17,
        -0,
        0,
        1
      ],
      "translation": [
        -135.80705261230469,
        0,
        0
      ]
    },
    {
      "mesh": 4,
      "name": "Cube_3_Mat_0"
    },
    {
      "children": [
        20
      ],
      "name": "Cube_1",
      "rotation": [
        -2.7755575615628914e-17,
        -0,
        0,
        1
      ],
      "translation": [
        -315.931640625,
        0,
        0
      ]
    },
    {
      "mesh": 5,
      "name": "Cube_1_Mat_0"
    }
  ],
  "scene": 0,
  "scenes": [
    {
      "name": "OSG_Scene",
      "nodes": [
        0
      ]
    }
  ]
}

